<!DOCTYPE svg PUBLIC "-//W3C//DTD SVG 1.1//EN" "http://www.w3.org/Graphics/SVG/1.1/DTD/svg11.dtd">
<!-- Uploaded to: SVG Repo, www.svgrepo.com, Transformed by: SVG Repo Mixer Tools -->
<svg fill="#000000" width="250px" height="250px" viewBox="0 0 32.00 32.00" xmlns="http://www.w3.org/2000/svg" stroke="#000000" stroke-width="2.848" transform="matrix(1, 0, 0, 1, 0, 0)">
<g id="SVGRepo_bgCarrier" stroke-width="0"/>
<g id="SVGRepo_tracerCarrier" stroke-linecap="round" stroke-linejoin="round"/>
<g id="SVGRepo_iconCarrier"> <title/> <g data-name="menu " id="menu_"> <path d="M29,6H3A1,1,0,0,0,3,8H29a1,1,0,0,0,0-2Z"/> <path d="M3,17H16a1,1,0,0,0,0-2H3a1,1,0,0,0,0,2Z"/> <path d="M25,24H3a1,1,0,0,0,0,2H25a1,1,0,0,0,0-2Z"/> </g> </g>
</svg>